<svg width="416" height="122" viewBox="0 0 416 122" fill="none" xmlns="http://www.w3.org/2000/svg">
<path d="M297.593 100.649C300.114 100.628 303.116 99.4416 305.33 96.5972C306.942 94.5278 307.427 92.126 307.217 89.5755C306.903 85.7537 305.058 82.9802 301.441 81.4858C299.477 80.6741 297.409 80.5049 295.326 80.6946C292.326 80.9663 289.758 82.1403 287.933 84.6233C286.232 86.9379 285.919 89.5866 286.246 92.3413C286.486 94.3629 287.292 96.1563 288.735 97.6234C290.886 99.809 293.569 100.649 297.593 100.649ZM307.359 75.8654V74.9896C307.359 70.3945 307.358 65.7994 307.361 61.2043C307.361 60.343 307.365 60.3404 308.241 60.3396C311.017 60.3379 313.793 60.355 316.569 60.3268C317.175 60.3208 317.367 60.5207 317.366 61.1094C317.355 70.3654 317.376 79.6214 317.349 88.8766C317.338 92.4541 316.823 95.9547 315.258 99.2254C312.966 104.017 309.23 107.218 304.157 108.717C297.367 110.725 290.729 110.341 284.574 106.597C279.553 103.543 276.815 98.9392 276.134 93.1342C275.714 89.5499 276.084 86.0433 277.493 82.6957C279.669 77.5298 283.557 74.2052 288.862 72.5229C292.519 71.3634 296.265 71.0421 300.05 71.8538C302.688 72.4186 305.039 73.5678 306.959 75.5031C307.048 75.5928 307.147 75.6731 307.359 75.8654Z" fill="#FF0000"/>
<path d="M341.19 94.9181C338.444 94.9428 335.698 94.9769 332.992 94.3938C331.222 94.0119 329.53 93.4389 328.041 92.3724C326.025 90.9299 324.935 88.9213 324.509 86.5112C323.768 82.3252 324.842 78.7692 328.13 75.9831C329.945 74.4451 332.022 73.3692 334.29 72.7366C341.838 70.6317 349.132 71.4126 356.157 74.856C357.11 75.3232 357.981 75.9345 358.829 76.5765C359.146 76.816 359.159 77.0206 358.906 77.3216C357.266 79.285 355.631 81.2544 354.008 83.2314C353.754 83.5401 353.543 83.5153 353.238 83.3184C350.307 81.4172 347.041 80.6457 343.603 80.4061C341.714 80.2748 339.847 80.3319 337.993 80.7079C337.033 80.9023 336.113 81.2126 335.309 81.8009C334.821 82.1581 334.475 82.6167 334.311 83.205C334.072 84.0635 334.369 84.824 335.146 85.2528C335.962 85.703 336.864 85.8317 337.778 85.8377C340.719 85.8573 343.66 85.8172 346.6 85.8735C348.981 85.9204 351.339 86.1966 353.61 86.9954C358.797 88.8199 360.688 93.057 360.231 98.0086C359.803 102.651 357.037 105.612 353.044 107.573C350.291 108.925 347.347 109.561 344.3 109.794C339.84 110.136 335.452 109.789 331.159 108.477C327.867 107.471 324.91 105.849 322.297 103.591C321.85 103.205 321.876 102.969 322.264 102.558C324.081 100.636 325.878 98.6949 327.653 96.7349C328.007 96.3453 328.214 96.3623 328.591 96.6914C331.369 99.1118 334.633 100.46 338.249 100.952C341.162 101.348 344.066 101.316 346.91 100.439C347.701 100.196 348.436 99.833 349.088 99.3104C349.397 99.0632 349.65 98.7699 349.852 98.4315C350.742 96.9369 350.285 95.7476 348.62 95.2813C347.465 94.9582 346.265 95.0034 345.083 94.919C345.039 94.9156 344.996 94.9181 344.952 94.9181H341.19Z" fill="#FF0000"/>
<path d="M203.622 100.629C204.08 100.629 204.543 100.67 204.996 100.623C208.291 100.276 211.032 98.9635 212.819 96.0681C214.031 94.106 214.361 91.9321 214.169 89.6859C213.878 86.3063 212.338 83.6619 209.267 82.0308C206.628 80.6295 203.808 80.4661 200.927 81.0132C198.647 81.4471 196.702 82.5073 195.218 84.3111C193.261 86.6918 192.874 89.4757 193.223 92.4103C193.462 94.4242 194.267 96.2136 195.72 97.6651C197.894 99.8382 200.596 100.686 203.622 100.629ZM202.948 71.579C208.345 71.5927 212.715 72.6775 216.566 75.3968C221.115 78.6079 223.632 83.0229 224.226 88.5304C224.611 92.0989 224.148 95.5465 222.63 98.8112C220.447 103.507 216.813 106.701 211.947 108.406C205.547 110.649 199.17 110.462 193.073 107.399C187.238 104.467 183.909 99.6374 183.128 93.1778C182.502 87.997 183.587 83.2007 186.871 79.0324C189.961 75.1101 194.122 72.9472 198.979 72.0019C200.525 71.7007 202.086 71.5433 202.948 71.579Z" fill="#FF0000"/>
<path d="M250.122 100.708C250.58 100.708 251.043 100.748 251.496 100.701C254.818 100.353 257.573 99.024 259.358 96.092C260.545 94.1435 260.867 91.9865 260.677 89.7612C260.388 86.3779 258.851 83.7303 255.781 82.0961C253.144 80.6909 250.323 80.5257 247.441 81.0725C245.162 81.5042 243.215 82.5644 241.729 84.3681C239.77 86.7492 239.381 89.5364 239.728 92.4736C239.966 94.4884 240.769 96.2802 242.22 97.7347C244.394 99.9114 247.094 100.763 250.122 100.708ZM250.138 109.91C245.057 109.896 240.374 108.621 236.347 105.436C232.432 102.34 230.224 98.2584 229.633 93.3362C229.109 88.9693 229.776 84.805 232.07 80.9864C234.83 76.3895 238.976 73.6244 244.126 72.3641C249.588 71.0279 254.994 71.32 260.113 73.7522C266.389 76.7344 269.984 81.7273 270.728 88.6414C271.277 93.751 270.132 98.4475 266.899 102.522C263.811 106.413 259.668 108.571 254.827 109.504C253.281 109.802 251.72 109.954 250.138 109.91Z" fill="#FF0000"/>
<path d="M155.369 92.051C155.369 86.9407 155.348 81.8304 155.376 76.721C155.393 73.724 155.77 70.7798 157.026 68.0088C159.273 63.0487 163.183 60.2453 168.544 59.5176C172.576 58.9699 176.527 59.4835 180.335 60.9773C180.876 61.1897 181.007 61.4371 180.855 61.9934C180.22 64.3207 179.61 66.6549 179.026 68.9959C178.877 69.5888 178.681 69.7194 178.092 69.4489C175.717 68.3595 173.218 67.921 170.614 68.2776C168.184 68.6103 166.706 70.0811 165.941 72.3214C165.363 74.0174 165.359 75.7817 165.386 77.546C165.393 77.9965 165.671 78.0093 166.002 78.0084C167.424 78.0041 168.848 78.0067 170.271 78.0067C173.16 78.0067 176.049 78.0195 178.938 77.9965C179.522 77.9922 179.743 78.1483 179.736 78.7634C179.706 81.264 179.706 83.7645 179.735 86.265C179.743 86.8895 179.543 87.0934 178.912 87.0909C174.732 87.0695 170.551 87.0798 166.37 87.0798C165.389 87.0798 165.387 87.0815 165.387 88.0319C165.387 94.6641 165.387 101.296 165.386 107.929C165.386 108.893 165.384 108.894 164.408 108.894C161.738 108.895 159.067 108.895 156.396 108.894C155.37 108.894 155.369 108.894 155.369 107.837C155.368 102.575 155.369 97.3131 155.369 92.051Z" fill="#FF0000"/>
<path d="M290.938 16.3901C293.278 14.1805 295.883 12.8479 298.867 12.3804C308.251 10.9081 317.774 15.3717 320.308 26.4668C320.755 28.4218 320.92 30.4109 320.929 32.4068C320.956 37.7892 320.939 43.1715 320.938 48.5538C320.938 49.5765 320.936 49.5773 319.89 49.5773C317.224 49.5782 314.558 49.579 311.892 49.5773C311.027 49.5765 311.023 49.5731 311.022 48.7114C311.02 43.1553 311.027 37.5993 311.017 32.0432C311.013 29.7093 310.612 27.463 309.379 25.4347C307.829 22.8819 305.466 21.6098 302.573 21.3322C300.309 21.1151 298.062 21.2803 295.975 22.3319C293.276 23.6926 291.942 26.0367 291.334 28.8842C291.04 30.2679 290.938 31.6737 290.938 33.0863C290.937 38.295 290.938 43.5044 290.937 48.7131C290.937 49.5731 290.933 49.5765 290.071 49.5773C287.362 49.579 284.653 49.5612 281.944 49.5901C281.315 49.5969 281.081 49.4505 281.082 48.765C281.101 33.117 281.1 17.4681 281.084 1.82006C281.083 1.17548 281.3 1.01796 281.908 1.02391C284.638 1.05201 287.37 1.05457 290.099 1.02221C290.751 1.01455 290.955 1.20018 290.951 1.86435C290.925 6.42243 290.938 10.9797 290.938 15.5377C290.938 15.7694 290.938 16.0018 290.938 16.3901Z" fill="#FF0000"/>
<path d="M211.703 27.1634C213.568 27.1634 215.434 27.1975 217.297 27.1515C218.505 27.1209 219.726 27.1124 220.889 26.685C222.445 26.1137 222.959 24.6348 222.079 23.225C221.513 22.3182 220.666 21.7495 219.692 21.4021C216.184 20.1532 212.702 20.2647 209.327 21.8474C207.34 22.7797 205.984 24.359 205.227 26.4296C204.969 27.1319 204.992 27.1617 205.719 27.1626C207.714 27.1651 209.708 27.1634 211.703 27.1634ZM212.369 35.3044C210.35 35.3044 208.33 35.3035 206.311 35.3052C205.494 35.3061 205.471 35.3418 205.846 36.0919C207.25 38.898 209.63 40.4101 212.617 40.9575C217.211 41.7978 221.425 40.9362 225.04 37.8253C225.435 37.4856 225.685 37.4822 226.059 37.8645C227.866 39.7111 229.692 41.5382 231.532 43.3516C231.896 43.71 231.912 43.9305 231.526 44.2847C228.636 46.9359 225.241 48.597 221.429 49.4083C216.74 50.407 212.058 50.4206 207.491 48.8328C200.473 46.3927 196.098 41.5526 194.981 34.1439C194.128 28.4848 195.259 23.1994 199.004 18.6871C201.893 15.2066 205.671 13.1804 210.061 12.2975C215.369 11.2298 220.528 11.6938 225.393 14.1824C228.292 15.6647 230.692 17.7446 231.784 20.9143C233.051 24.5974 232.81 28.1621 230.241 31.2892C228.746 33.1086 226.64 33.9524 224.418 34.5236C222.347 35.0566 220.227 35.2277 218.101 35.2839C216.191 35.3342 214.28 35.2941 212.369 35.2941V35.3044Z" fill="#FF0000"/>
<path d="M395.296 40.8965C395.733 40.8965 396.172 40.9348 396.605 40.8905C399.927 40.5509 402.687 39.2313 404.482 36.3079C405.689 34.3422 406.015 32.1645 405.816 29.9188C405.517 26.5373 403.967 23.8974 400.892 22.2731C398.272 20.888 395.471 20.7246 392.612 21.2583C390.331 21.684 388.378 22.7371 386.889 24.5368C384.907 26.9298 384.516 29.7357 384.874 32.6966C385.114 34.6887 385.909 36.4594 387.339 37.8999C389.523 40.1022 392.244 40.9569 395.296 40.8965ZM395.32 50.0941C390.264 50.0882 385.597 48.8342 381.572 45.6868C377.599 42.5812 375.364 38.4736 374.771 33.502C374.257 29.2071 374.906 25.1054 377.12 21.3273C379.563 17.1584 383.194 14.4197 387.783 12.9938C393.927 11.0834 400.016 11.3116 405.8 14.2222C411.793 17.2384 415.17 22.1871 415.873 28.8555C416.389 33.7454 415.355 38.2736 412.382 42.2612C409.292 46.4071 405.036 48.6954 400.009 49.6812C398.464 49.9843 396.902 50.1401 395.32 50.0941Z" fill="#FF0000"/>
<path d="M176.853 21.5251C173.28 21.5251 169.706 21.5387 166.134 21.5123C165.497 21.5072 165.263 21.6625 165.273 22.3454C165.313 25.0213 165.249 27.6981 165.31 30.3732C165.358 32.5088 165.611 34.6282 166.461 36.6213C167.588 39.2631 169.569 40.7552 172.44 40.9284C176.826 41.1931 179.95 39.2887 181.882 35.2249C182.18 34.5975 182.447 33.9539 182.689 33.3026C182.832 32.916 183.008 32.8554 183.365 33.0415C185.668 34.2493 187.977 35.446 190.288 36.6393C190.583 36.792 190.706 36.9576 190.568 37.3076C188.566 42.3616 185.489 46.457 180.39 48.6985C177.685 49.8884 174.836 50.2639 171.885 50.0412C169.642 49.873 167.463 49.4881 165.386 48.6106C161.184 46.8352 158.559 43.601 157.038 39.3818C156.021 36.5573 155.55 33.621 155.473 30.625C155.256 22.272 155.432 13.9172 155.379 5.5633C155.373 4.6167 155.383 4.61414 156.308 4.61414C159.036 4.61328 161.765 4.63121 164.493 4.60133C165.131 4.5945 165.308 4.81472 165.299 5.42929C165.27 7.49579 165.316 9.56399 165.273 11.6296C165.259 12.3099 165.484 12.4627 166.127 12.461C173.252 12.4397 180.377 12.4473 187.502 12.4473C188.51 12.4473 188.512 12.4482 188.512 13.4452C188.514 15.8172 188.515 18.1885 188.512 20.5605C188.511 21.4961 188.483 21.5242 187.573 21.5242C184 21.5259 180.427 21.5251 176.853 21.5251Z" fill="#FF0000"/>
<path d="M368.466 39.455C368.467 42.539 368.468 45.6221 368.466 48.706C368.465 49.5733 368.463 49.5775 367.62 49.5775C364.911 49.5792 362.202 49.5792 359.492 49.5775C358.629 49.5775 358.625 49.5741 358.624 48.723C358.623 43.2455 358.636 37.7688 358.616 32.2913C358.61 30.5619 358.399 28.8537 357.747 27.2241C356.336 23.6977 353.648 21.8702 349.93 21.503C347.954 21.3084 345.984 21.4302 344.125 22.2441C341.06 23.5852 339.458 26.0363 338.818 29.2073C338.6 30.2878 338.532 31.3818 338.535 32.4842C338.544 37.8754 338.539 43.2658 338.538 48.657C338.538 49.5758 338.535 49.5775 337.597 49.5784C334.866 49.5792 332.135 49.5631 329.406 49.5902C328.808 49.5961 328.609 49.4058 328.61 48.8177C328.626 43.0813 328.586 37.3458 328.634 31.6102C328.665 28.0516 329.374 24.6267 331.147 21.486C333.469 17.3716 336.958 14.6802 341.476 13.3485C346.494 11.8687 351.54 11.8678 356.488 13.6133C362.959 15.8952 366.662 20.5968 368.054 27.1962C368.353 28.6117 368.481 30.0475 368.471 31.4985C368.453 34.1501 368.465 36.8026 368.466 39.455Z" fill="#FF0000"/>
<path d="M258 11.772C264.353 11.7354 269.746 13.3927 274.434 17.1728C274.922 17.5659 274.9 17.8046 274.523 18.2513C272.827 20.2616 271.155 22.294 269.497 24.3358C269.178 24.728 268.954 24.7698 268.555 24.4364C264.63 21.1601 260.078 20.3306 255.19 21.2948C250.631 22.1943 247.832 25.9079 247.768 30.7947C247.693 36.5877 251.64 40.6466 257.441 40.9049C261.925 41.1052 265.724 39.6466 268.938 36.5825C269.362 36.1784 269.598 36.1946 269.975 36.62C271.693 38.5545 273.426 40.4761 275.183 42.3747C275.603 42.8291 275.52 43.0874 275.099 43.4702C271.32 46.9085 267.014 49.2725 261.872 49.8719C256.211 50.5326 250.779 49.8616 245.9 46.668C241.133 43.5469 238.465 39.0813 237.807 33.4469C237.253 28.7213 238.053 24.2523 240.745 20.2513C243.804 15.7039 248.211 13.2128 253.517 12.1795C255.121 11.8675 256.744 11.7098 258 11.772Z" fill="#FF0000"/>
<path d="M118.309 38.8546L119.344 43.7321C121.058 51.8089 127.44 58.1195 135.608 59.8145L140.54 60.8378L135.608 61.8619C127.44 63.556 121.058 69.8667 119.344 77.9435L118.309 82.8218L117.274 77.9435C115.56 69.8667 109.178 63.556 101.011 61.8619L96.0781 60.8378L101.011 59.8145C109.178 58.1195 115.56 51.8089 117.274 43.7321L118.309 38.8546Z" fill="#BDBDBD"/>
<path d="M75.1245 8.1027L79.8919 9.66629C87.7861 12.2552 96.464 9.92903 102.006 3.73863L105.353 -0.000175476L103.791 4.76908C101.203 12.6664 103.529 21.3468 109.716 26.8923L113.454 30.2404L108.686 28.6776C100.792 26.0887 92.1144 28.4141 86.5719 34.6053L83.2242 38.3433L84.7872 33.5749C87.3751 25.6767 85.0498 16.9963 78.8619 11.4517L75.1245 8.1027Z" fill="#BDBDBD"/>
<path d="M27.0864 30.2404L30.8238 26.8914C37.0117 21.3468 39.337 12.6664 36.7491 4.76908L35.1861 -0.000175476L38.5338 3.73778C44.0763 9.92903 52.7541 12.2544 60.6483 9.66544L65.4157 8.1027L61.6784 11.4508C55.4904 16.9963 53.1651 25.6767 55.753 33.574L57.3152 38.3433L53.9684 34.6045C48.4259 28.4141 39.748 26.0879 31.8538 28.6768L27.0864 30.2404Z" fill="#BDBDBD"/>
<path d="M22.231 82.8218L21.1962 77.9444C19.4821 69.8675 13.1003 63.5569 4.93242 61.8619L0 60.8386L4.93242 59.8145C13.1003 58.1204 19.4821 51.8097 21.1962 43.7329L22.231 38.8546L23.2658 43.7329C24.9799 51.8097 31.3617 58.1204 39.5296 59.8145L44.462 60.8386L39.5296 61.8619C31.3617 63.5569 24.9799 69.8675 23.2658 77.9444L22.231 82.8218Z" fill="#BDBDBD"/>
<path d="M65.4157 113.062L60.6483 111.499C52.7541 108.91 44.0763 111.236 38.5338 117.426L35.1861 121.165L36.7491 116.396C39.337 108.498 37.0117 99.8181 30.8238 94.2726L27.0864 90.9245L31.8538 92.4881C39.748 95.0761 48.4259 92.7508 53.9684 86.5596L57.316 82.8216L55.753 87.5909C53.1651 95.4882 55.4904 104.169 61.6784 109.713L65.4157 113.062Z" fill="#BDBDBD"/>
<path d="M113.454 90.9245L109.716 94.2735C103.529 99.8181 101.203 108.498 103.791 116.396L105.354 121.165L102.006 117.427C96.464 111.236 87.7861 108.91 79.8919 111.499L75.1245 113.062L78.8619 109.714C85.0498 104.169 87.3751 95.4882 84.7872 87.5909L83.2251 82.8216L86.5719 86.5604C92.1144 92.7508 100.792 95.077 108.686 92.4881L113.454 90.9245Z" fill="#BDBDBD"/>
</svg>
